HIERARCHY
ROOT joint_Root
{
	OFFSET 0.0 0.0 0.0
	CHANNELS 6 Xposition Yposition Zposition Zrotation Xrotation Yrotation 
	JOINT Hips
	{
		OFFSET -0.726466 93.3139 -2.00062
		CHANNELS 6 Xposition Yposition Zposition Zrotation Xrotation Yrotation 
		JOINT Spine
		{
			OFFSET 15.7357 0.0 0.0
			CHANNELS 6 Xposition Yposition Zposition Zrotation Xrotation Yrotation 
			JOINT Chest
			{
				OFFSET 8.98455 -0.406207 0.0
				CHANNELS 6 Xposition Yposition Zposition Zrotation Xrotation Yrotation 
				JOINT Neck
				{
					OFFSET 16.3773 0.0 0.0
					CHANNELS 6 Xposition Yposition Zposition Zrotation Xrotation Yrotation 
					JOINT Head
					{
						OFFSET 6.45672 0.0 0.0
						CHANNELS 6 Xposition Yposition Zposition Zrotation Xrotation Yrotation 
						End Site
						{
							OFFSET 0.0 0.0 0.0
						}
					}
				}
				JOINT Shoulder_L
				{
					OFFSET 12.9942 -0.242716 4.98039
					CHANNELS 6 Xposition Yposition Zposition Zrotation Xrotation Yrotation 
					JOINT UpperArm_L
					{
						OFFSET 5.34809 0.0 0.0
						CHANNELS 6 Xposition Yposition Zposition Zrotation Xrotation Yrotation 
						JOINT LowerArm_L
						{
							OFFSET 24.3286 1.87007e-05 0.0
							CHANNELS 6 Xposition Yposition Zposition Zrotation Xrotation Yrotation 
							JOINT Hand_L
							{
								OFFSET 22.2916 0.0 0.0
								CHANNELS 6 Xposition Yposition Zposition Zrotation Xrotation Yrotation 
								End Site
								{
									OFFSET 0.0 0.0 0.0
								}
							}
						}
					}
				}
				JOINT Shoulder_R
				{
					OFFSET 12.9945 -0.242716 -4.98039
					CHANNELS 6 Xposition Yposition Zposition Zrotation Xrotation Yrotation 
					JOINT UpperArm_R
					{
						OFFSET -5.34813 0.0 0.0
						CHANNELS 6 Xposition Yposition Zposition Zrotation Xrotation Yrotation 
						JOINT LowerArm_R
						{
							OFFSET -24.3289 0.000322201 0.0
							CHANNELS 6 Xposition Yposition Zposition Zrotation Xrotation Yrotation 
							JOINT Hand_R
							{
								OFFSET -22.2915 -0.000108084 0.0
								CHANNELS 6 Xposition Yposition Zposition Zrotation Xrotation Yrotation 
								End Site
								{
									OFFSET 0.0 0.0 0.0
								}
							}
						}
					}
				}
			}
		}
		JOINT UpperLeg_L
		{
			OFFSET -2.19248 -6.46944 0.0
			CHANNELS 6 Xposition Yposition Zposition Zrotation Xrotation Yrotation 
			JOINT LowerLeg_L
			{
				OFFSET 39.0811 0.0 -1.23785e-05
				CHANNELS 6 Xposition Yposition Zposition Zrotation Xrotation Yrotation 
				JOINT Foot_L
				{
					OFFSET 40.9854 0.0 -1.26872e-05
					CHANNELS 6 Xposition Yposition Zposition Zrotation Xrotation Yrotation 
					JOINT Toes_L
					{
						OFFSET 11.7543 0.0 0.0
						CHANNELS 6 Xposition Yposition Zposition Zrotation Xrotation Yrotation 
						End Site
						{
							OFFSET 0.0 0.0 0.0
						}
					}
				}
			}
		}
		JOINT UpperLeg_R
		{
			OFFSET -2.19251 6.46944 0.0
			CHANNELS 6 Xposition Yposition Zposition Zrotation Xrotation Yrotation 
			JOINT LowerLeg_R
			{
				OFFSET -39.0811 -0.00228153 -0.0401928
				CHANNELS 6 Xposition Yposition Zposition Zrotation Xrotation Yrotation 
				JOINT Foot_R
				{
					OFFSET -40.9854 0.0 0.0
					CHANNELS 6 Xposition Yposition Zposition Zrotation Xrotation Yrotation 
					JOINT Toes_R
					{
						OFFSET -11.7543 0.0 0.0
						CHANNELS 6 Xposition Yposition Zposition Zrotation Xrotation Yrotation 
						End Site
						{
							OFFSET 0.0 0.0 0.0
						}
					}
				}
			}
		}
	}
}
MOTION
Frames:	6
Frame Time:	0.0333333
0.000000 0.000000 0.000000 0.000000 0.000000 -0.000000 -0.555333 91.918900 -0.503134 87.637800 -3.815900 4.317530 15.735700 0.000005 -0.000001 82.382200 85.305400 -81.880000 8.984550 -0.406207 -0.000000 1.546460 -1.271270 1.020710 16.377300 -0.000001 -0.000001 3.466910 -0.794247 0.357100 6.456720 -0.000001 -0.000000 2.356970 -0.690741 -1.102670 12.994200 -0.242716 4.980390 -90.003500 0.009422 -69.628200 5.348090 -0.000007 -0.000001 -67.891900 33.593800 -13.630200 24.328600 0.000019 0.000005 4.075520 9.225710 -23.961100 22.291600 -0.000001 0.000005 1.356120 5.569360 -9.655130 12.994500 -0.242716 -4.980390 88.000400 5.571250 -70.220200 -5.348130 -0.000001 -0.000004 -58.440700 38.463900 -16.403500 -24.328900 0.000322 -0.000009 2.166250 4.005580 -28.445600 -22.291500 -0.000108 -0.000004 6.782630 5.617810 -12.469800 -2.192480 -6.469440 -0.000000 -168.298000 -19.104400 -1.362590 39.081100 -0.000007 -0.000012 -0.193734 0.459038 22.882200 40.985400 -0.000006 -0.000013 -7.324560 -3.044150 -64.513700 11.754300 -0.000000 0.000003 -0.000122 -0.001223 -16.624300 -2.192510 6.469440 -0.000001 173.744000 20.618000 -179.996000 -39.081100 -0.002282 -0.040193 -0.059254 0.171417 20.054600 -40.985400 0.000008 0.000006 -4.365270 2.077030 -63.235800 -11.754300 -0.000006 -0.000006 -0.003302 -0.043978 -18.361700
0.000000 0.000000 0.000000 0.000000 0.000000 -0.000000 -0.565235 91.919600 -0.532829 87.626400 -3.858660 4.323950 15.735700 0.000005 -0.000001 82.367100 85.283400 -81.824400 8.984550 -0.406207 -0.000000 1.590260 -1.281520 1.102230 16.377300 -0.000001 -0.000001 3.492250 -0.804561 0.335736 6.456720 -0.000001 -0.000000 2.289920 -0.735545 -1.041090 12.994200 -0.242716 4.980390 -90.030100 0.081158 -69.632700 5.348090 -0.000007 -0.000001 -66.679200 33.424900 -15.162900 24.328600 0.000019 0.000005 4.313340 9.740800 -24.026800 22.291600 -0.000001 0.000005 1.170890 5.571360 -9.758210 12.994500 -0.242716 -4.980390 88.071000 5.381320 -70.245900 -5.348130 -0.000001 -0.000004 -57.568200 40.663800 -16.105800 -24.328900 0.000322 -0.000009 2.573770 4.348690 -30.670300 -22.291500 -0.000108 -0.000004 7.241280 5.622800 -12.812000 -2.192480 -6.469440 -0.000000 -168.285000 -19.062400 -1.359470 39.081100 -0.000007 -0.000012 -0.194286 0.460375 22.880900 40.985400 -0.000006 -0.000013 -7.336500 -3.076240 -64.511800 11.754300 -0.000000 0.000003 -0.000137 -0.001348 -16.628900 -2.192510 6.469440 -0.000001 173.762000 20.645600 179.981000 -39.081100 -0.002282 -0.040193 -0.058163 0.168280 20.070800 -40.985400 0.000008 0.000006 -4.322690 2.163240 -63.223400 -11.754300 -0.000006 -0.000006 -0.003456 -0.045655 -18.430000
0.000000 0.000000 0.000000 0.000000 0.000000 -0.000000 -0.586558 91.918900 -0.560006 87.640400 -3.804570 4.354530 15.735700 0.000005 -0.000001 82.362700 85.258700 -81.775700 8.984550 -0.406207 -0.000000 1.639680 -1.290920 1.191460 16.377300 -0.000001 -0.000001 3.483090 -0.855802 0.342634 6.456720 -0.000001 -0.000000 2.302730 -0.794004 -1.029280 12.994200 -0.242716 4.980390 -90.063600 0.171616 -69.657600 5.348090 -0.000007 -0.000001 -64.842100 32.933900 -17.494500 24.328600 0.000019 0.000005 4.444070 9.974820 -24.164900 22.291600 -0.000001 0.000005 1.040550 5.569930 -9.684480 12.994500 -0.242716 -4.980390 88.155400 5.129550 -70.190900 -5.348130 -0.000001 -0.000004 -56.505700 43.177200 -15.660100 -24.328900 0.000322 -0.000009 2.971320 4.499620 -33.497200 -22.291500 -0.000108 -0.000004 7.926050 5.629580 -13.303000 -2.192480 -6.469440 -0.000000 -168.283000 -19.083300 -1.376870 39.081100 -0.000007 -0.000012 -0.193273 0.457682 22.894000 40.985400 -0.000006 -0.000013 -7.322270 -3.016820 -64.473300 11.754300 -0.000000 0.000003 -0.000133 -0.001312 -16.627600 -2.192510 6.469440 -0.000001 173.750000 20.614900 179.994000 -39.081100 -0.002282 -0.040193 -0.060838 0.175436 20.088100 -40.985400 0.000008 0.000006 -4.361650 2.121340 -63.229300 -11.754300 -0.000006 -0.000006 -0.003368 -0.044696 -18.391000
0.000000 0.000000 0.000000 0.000000 0.000000 -0.000000 -0.613261 91.919200 -0.624047 87.684800 -3.587720 4.378870 15.735700 0.000005 -0.000001 82.097700 85.237800 -81.472500 8.984550 -0.406207 -0.000000 1.676100 -1.341950 1.268900 16.377300 -0.000001 -0.000001 3.507450 -0.951441 0.284887 6.456720 -0.000001 -0.000000 2.327100 -0.854261 -0.880124 12.994200 -0.242716 4.980390 -90.074500 0.202115 -69.761700 5.348090 -0.000007 -0.000001 -62.274100 32.112100 -20.659700 24.328600 0.000019 0.000005 4.663820 10.291600 -24.542100 22.291600 -0.000001 0.000005 1.246250 5.571830 -9.781900 12.994500 -0.242716 -4.980390 88.257500 4.817550 -70.087500 -5.348130 -0.000001 -0.000004 -55.360700 45.676700 -14.976200 -24.328900 0.000322 -0.000009 3.510280 4.662570 -37.045700 -22.291500 -0.000108 -0.000004 7.816850 5.635780 -13.785900 -2.192480 -6.469440 -0.000000 -168.316000 -19.059400 -1.455080 39.081100 -0.000007 -0.000012 -0.193505 0.458279 22.891800 40.985400 -0.000006 -0.000013 -7.284850 -2.860530 -64.381200 11.754300 -0.000000 0.000003 -0.000135 -0.001328 -16.628200 -2.192510 6.469440 -0.000001 173.708000 20.697300 -179.996000 -39.081100 -0.002282 -0.040193 -0.063984 0.183950 20.097000 -40.985400 0.000008 0.000006 -4.564590 2.003750 -63.213500 -11.754300 -0.000006 -0.000006 -0.003332 -0.044299 -18.374800
0.000000 0.000000 0.000000 0.000000 0.000000 -0.000000 -0.667153 91.922900 -0.680149 87.722800 -3.148620 4.450740 15.735700 0.000005 -0.000001 81.172000 85.188600 -80.497900 8.984550 -0.406207 -0.000000 1.752580 -1.511300 1.370270 16.377300 -0.000001 -0.000001 3.560480 -1.067520 0.226330 6.456720 -0.000001 -0.000000 2.293520 -0.862541 -0.758737 12.994200 -0.242716 4.980390 -90.052000 0.142244 -69.919600 5.348090 -0.000007 -0.000001 -59.396000 30.534000 -24.300700 24.328600 0.000019 0.000005 4.893520 10.421900 -25.327700 22.291600 -0.000001 0.000005 1.580450 5.571760 -9.777040 12.994500 -0.242716 -4.980390 88.387600 4.415910 -69.918300 -5.348130 -0.000001 -0.000004 -54.106600 48.212800 -14.127900 -24.328900 0.000322 -0.000009 4.516240 5.153470 -41.330500 -22.291500 -0.000108 -0.000004 7.642210 5.643360 -14.421600 -2.192480 -6.469440 -0.000000 -168.348000 -18.846900 -1.535090 39.081100 -0.000007 -0.000012 -0.190782 0.452283 22.871300 40.985400 -0.000006 -0.000013 -7.238670 -2.643230 -64.257000 11.754300 -0.000000 0.000003 -0.000141 -0.001376 -16.629900 -2.192510 6.469440 -0.000001 173.675000 20.917200 -179.916000 -39.081100 -0.002282 -0.040193 -0.064301 0.184178 20.161200 -40.985400 0.000008 0.000006 -4.483590 1.789070 -63.283300 -11.754300 -0.000006 -0.000006 -0.003456 -0.045656 -18.430000
0.000000 0.000000 0.000000 0.000000 0.000000 -0.000000 -0.728455 91.929400 -0.740754 87.782400 -2.657690 4.525190 15.735700 0.000005 -0.000001 80.301500 85.133200 -79.572400 8.984550 -0.406207 -0.000000 1.840240 -1.676440 1.483920 16.377300 -0.000001 -0.000001 3.562460 -1.230620 0.140106 6.456720 -0.000001 -0.000000 2.329260 -0.875319 -0.589196 12.994200 -0.242716 4.980390 -89.986800 -0.036862 -70.213600 5.348090 -0.000007 -0.000001 -56.574500 28.097500 -28.107300 24.328600 0.000019 0.000005 4.807820 9.753720 -26.403800 22.291600 -0.000001 0.000005 2.141310 5.571540 -9.767510 12.994500 -0.242716 -4.980390 88.526900 3.978870 -69.664900 -5.348130 -0.000001 -0.000004 -52.729800 50.640400 -13.074200 -24.328900 0.000322 -0.000009 5.504170 5.289020 -46.271200 -22.291500 -0.000108 -0.000004 7.238620 5.651880 -15.202500 -2.192480 -6.469440 -0.000000 -168.382000 -18.662800 -1.593830 39.081100 -0.000007 -0.000012 -0.189799 0.451549 22.798700 40.985400 -0.000006 -0.000013 -7.185470 -2.347930 -64.093200 11.754300 -0.000000 0.000003 -0.000134 -0.001319 -16.627800 -2.192510 6.469440 -0.000001 173.615000 21.166000 -179.818000 -39.081100 -0.002282 -0.040193 -0.064182 0.183408 20.206000 -40.985400 0.000008 0.000006 -4.454210 1.569700 -63.343800 -11.754300 -0.000006 -0.000006 -0.003304 -0.044000 -18.362600
